G04*
G04 #@! TF.GenerationSoftware,Altium Limited,Altium Designer,24.1.2 (44)*
G04*
G04 Layer_Physical_Order=2*
G04 Layer_Color=16711680*
%FSLAX44Y44*%
%MOMM*%
G71*
G04*
G04 #@! TF.SameCoordinates,D0725CFB-4392-4FD5-9E36-9DAD540CF34A*
G04*
G04*
G04 #@! TF.FilePolarity,Positive*
G04*
G01*
G75*
%ADD19C,1.4986*%
%ADD20C,1.2700*%
%ADD21C,1.3700*%
%ADD22R,1.3700X1.3700*%
%ADD23C,3.8100*%
%ADD24C,1.1430*%
D19*
X1397000Y437350D02*
D03*
Y387350D02*
D03*
X1143000Y437350D02*
D03*
Y387350D02*
D03*
X889000Y437350D02*
D03*
Y387350D02*
D03*
X635000Y437350D02*
D03*
Y387350D02*
D03*
X381000Y437350D02*
D03*
Y387350D02*
D03*
X127000Y437350D02*
D03*
Y387350D02*
D03*
D20*
X1397000Y615950D02*
G03*
X1409700Y603250I12700J0D01*
G01*
X1511300D02*
G03*
X1485900Y577850I0J-25400D01*
G01*
X1409700Y603250D02*
X1511300D01*
X1485900Y495300D02*
Y577850D01*
D21*
X127000Y717550D02*
D03*
Y615950D02*
D03*
X76200Y666750D02*
D03*
X177800D02*
D03*
X381000Y717550D02*
D03*
Y615950D02*
D03*
X330200Y666750D02*
D03*
X431800D02*
D03*
X635000Y717550D02*
D03*
Y615950D02*
D03*
X584200Y666750D02*
D03*
X685800D02*
D03*
X889000Y717550D02*
D03*
Y615950D02*
D03*
X838200Y666750D02*
D03*
X939800D02*
D03*
X1143000Y717550D02*
D03*
Y615950D02*
D03*
X1092200Y666750D02*
D03*
X1193800D02*
D03*
X1397000Y717550D02*
D03*
Y615950D02*
D03*
X1346200Y666750D02*
D03*
X1447800D02*
D03*
X1511300Y603250D02*
D03*
Y577850D02*
D03*
Y552450D02*
D03*
D22*
Y628650D02*
D03*
D23*
X1460500Y63500D02*
D03*
Y825500D02*
D03*
X63500D02*
D03*
Y63500D02*
D03*
D24*
X1231900Y495300D02*
D03*
X1143000D02*
D03*
X723900D02*
D03*
X635000D02*
D03*
X977900D02*
D03*
X889000D02*
D03*
X469900D02*
D03*
X381000D02*
D03*
X215900D02*
D03*
X127000D02*
D03*
X1485900D02*
D03*
X1397000D02*
D03*
M02*
