G04*
G04 #@! TF.GenerationSoftware,Altium Limited,Altium Designer,24.1.2 (44)*
G04*
G04 Layer_Color=8388736*
%FSLAX44Y44*%
%MOMM*%
G71*
G04*
G04 #@! TF.SameCoordinates,D0725CFB-4392-4FD5-9E36-9DAD540CF34A*
G04*
G04*
G04 #@! TF.FilePolarity,Negative*
G04*
G01*
G75*
%ADD15C,1.5732*%
%ADD16R,1.5732X1.5732*%
%ADD17C,4.0132*%
%ADD18C,1.3462*%
%ADD19C,1.4986*%
D15*
X127000Y717550D02*
D03*
Y615950D02*
D03*
X76200Y666750D02*
D03*
X177800D02*
D03*
X381000Y717550D02*
D03*
Y615950D02*
D03*
X330200Y666750D02*
D03*
X431800D02*
D03*
X635000Y717550D02*
D03*
Y615950D02*
D03*
X584200Y666750D02*
D03*
X685800D02*
D03*
X889000Y717550D02*
D03*
Y615950D02*
D03*
X838200Y666750D02*
D03*
X939800D02*
D03*
X1143000Y717550D02*
D03*
Y615950D02*
D03*
X1092200Y666750D02*
D03*
X1193800D02*
D03*
X1397000Y717550D02*
D03*
Y615950D02*
D03*
X1346200Y666750D02*
D03*
X1447800D02*
D03*
X1511300Y603250D02*
D03*
Y577850D02*
D03*
Y552450D02*
D03*
D16*
Y628650D02*
D03*
D17*
X1460500Y63500D02*
D03*
Y825500D02*
D03*
X63500D02*
D03*
Y63500D02*
D03*
D18*
X1231900Y495300D02*
D03*
X1143000D02*
D03*
X723900D02*
D03*
X635000D02*
D03*
X977900D02*
D03*
X889000D02*
D03*
X469900D02*
D03*
X381000D02*
D03*
X215900D02*
D03*
X127000D02*
D03*
X1485900D02*
D03*
X1397000D02*
D03*
D19*
Y437350D02*
D03*
Y387350D02*
D03*
X1143000Y437350D02*
D03*
Y387350D02*
D03*
X889000Y437350D02*
D03*
Y387350D02*
D03*
X635000Y437350D02*
D03*
Y387350D02*
D03*
X381000Y437350D02*
D03*
Y387350D02*
D03*
X127000Y437350D02*
D03*
Y387350D02*
D03*
M02*
