G04*
G04 #@! TF.GenerationSoftware,Altium Limited,Altium Designer,24.1.2 (44)*
G04*
G04 Layer_Color=65535*
%FSLAX44Y44*%
%MOMM*%
G71*
G04*
G04 #@! TF.SameCoordinates,D0725CFB-4392-4FD5-9E36-9DAD540CF34A*
G04*
G04*
G04 #@! TF.FilePolarity,Positive*
G04*
G01*
G75*
%ADD10C,2.5400*%
%ADD11C,0.2540*%
%ADD12C,0.2000*%
%ADD13C,0.5080*%
%ADD14C,0.1524*%
D10*
X1334008Y82804D02*
G03*
X1397508Y146304I0J63500D01*
G01*
X190500Y806450D02*
G03*
X127000Y742950I0J-63500D01*
G01*
X444500Y806450D02*
G03*
X381000Y742950I0J-63500D01*
G01*
X698500Y806450D02*
G03*
X635000Y742950I0J-63500D01*
G01*
X825500Y82550D02*
G03*
X889000Y146050I0J63500D01*
G01*
X635000D02*
G03*
X698500Y82550I63500J0D01*
G01*
X784895Y82550D02*
G03*
X784895Y82550I-22895J0D01*
G01*
Y806450D02*
G03*
X784895Y806450I-22895J0D01*
G01*
X1079500Y82550D02*
G03*
X1143000Y146050I0J63500D01*
G01*
X125715Y146139D02*
G03*
X189215Y82639I63500J0D01*
G01*
X379730Y146050D02*
G03*
X443230Y82550I63500J0D01*
G01*
X1397000Y742950D02*
G03*
X1333500Y806450I-63500J0D01*
G01*
X1143000Y742950D02*
G03*
X1079500Y806450I-63500J0D01*
G01*
X889000Y742950D02*
G03*
X825500Y806450I-63500J0D01*
G01*
X128227Y526151D02*
Y583301D01*
X189215Y82639D02*
X1334008Y82562D01*
X762000Y806539D02*
Y870039D01*
Y19139D02*
Y82639D01*
X1397898Y526389D02*
Y583539D01*
X1143898Y526389D02*
Y583539D01*
X889898Y526389D02*
Y583539D01*
X635898Y526389D02*
Y583539D01*
X381898Y526389D02*
Y583539D01*
X748015Y82639D02*
X938515Y82639D01*
X190500Y806450D02*
X1333500Y806450D01*
X558800D02*
X749300Y806450D01*
X908029Y196850D02*
Y323809D01*
X844550Y260329D01*
X929189D01*
X1437189Y323809D02*
X1394870Y302649D01*
X1352550Y260329D01*
Y218010D01*
X1373710Y196850D01*
X1416030D01*
X1437189Y218010D01*
Y239170D01*
X1416030Y260329D01*
X1352550D01*
X1183189Y323809D02*
X1098550D01*
Y260329D01*
X1140870Y281489D01*
X1162029D01*
X1183189Y260329D01*
Y218010D01*
X1162029Y196850D01*
X1119710D01*
X1098550Y218010D01*
X110490Y195580D02*
X152810D01*
X131650D01*
Y322539D01*
X110490Y301379D01*
X421189Y196850D02*
X336550D01*
X421189Y281489D01*
Y302649D01*
X400029Y323809D01*
X357710D01*
X336550Y302649D01*
X590550D02*
X611710Y323809D01*
X654029D01*
X675189Y302649D01*
Y281489D01*
X654029Y260329D01*
X632870D01*
X654029D01*
X675189Y239170D01*
Y218010D01*
X654029Y196850D01*
X611710D01*
X590550Y218010D01*
D11*
X191758Y666750D02*
G03*
X191758Y666750I-64758J0D01*
G01*
X445758D02*
G03*
X445758Y666750I-64758J0D01*
G01*
X699758D02*
G03*
X699758Y666750I-64758J0D01*
G01*
X953758D02*
G03*
X953758Y666750I-64758J0D01*
G01*
X1207758D02*
G03*
X1207758Y666750I-64758J0D01*
G01*
X1461758D02*
G03*
X1461758Y666750I-64758J0D01*
G01*
X1365250D02*
X1377950Y654050D01*
X1365250Y666750D02*
X1377950Y679450D01*
X1365250Y666750D02*
X1428750D01*
X1111250D02*
X1123950Y654050D01*
X1111250Y666750D02*
X1123950Y679450D01*
X1111250Y666750D02*
X1174750D01*
X857250D02*
X869950Y654050D01*
X857250Y666750D02*
X869950Y679450D01*
X857250Y666750D02*
X920750D01*
X603250D02*
X615950Y654050D01*
X603250Y666750D02*
X615950Y679450D01*
X603250Y666750D02*
X666750D01*
X349250D02*
X361950Y654050D01*
X349250Y666750D02*
X361950Y679450D01*
X349250Y666750D02*
X412750D01*
X95250D02*
X107950Y654050D01*
X95250Y666750D02*
X107950Y679450D01*
X95250Y666750D02*
X158750D01*
X1244600Y482600D02*
Y508000D01*
X1130300Y482600D02*
X1244600D01*
X1130300Y508000D02*
X1244600D01*
X1130300Y482600D02*
Y508000D01*
X736600Y482600D02*
Y508000D01*
X622300Y482600D02*
X736600D01*
X622300Y508000D02*
X736600D01*
X622300Y482600D02*
Y508000D01*
X990600Y482600D02*
Y508000D01*
X876300Y482600D02*
X990600D01*
X876300Y508000D02*
X990600D01*
X876300Y482600D02*
Y508000D01*
X482600Y482600D02*
Y508000D01*
X368300Y482600D02*
X482600D01*
X368300Y508000D02*
X482600D01*
X368300Y482600D02*
Y508000D01*
X228600Y482600D02*
Y508000D01*
X114300Y482600D02*
X228600D01*
X114300Y508000D02*
X228600D01*
X114300Y482600D02*
Y508000D01*
X1498600Y482600D02*
Y508000D01*
X1384300Y482600D02*
X1498600D01*
X1384300Y508000D02*
X1498600D01*
X1384300Y482600D02*
Y508000D01*
X377505Y633171D02*
X375838Y634837D01*
X372506D01*
X370840Y633171D01*
Y626506D01*
X372506Y624840D01*
X375838D01*
X377505Y626506D01*
Y629838D01*
X374172D01*
X380837Y624840D02*
Y634837D01*
X387501Y624840D01*
Y634837D01*
X390834D02*
Y624840D01*
X395832D01*
X397498Y626506D01*
Y633171D01*
X395832Y634837D01*
X390834D01*
X1468120Y582767D02*
Y572770D01*
X1474785D01*
X1484781Y582767D02*
X1478117D01*
Y572770D01*
X1484781D01*
X1478117Y577768D02*
X1481449D01*
X1488114Y582767D02*
Y572770D01*
X1493112D01*
X1494778Y574436D01*
Y581101D01*
X1493112Y582767D01*
X1488114D01*
X891854Y704687D02*
X885190D01*
Y699688D01*
X888522Y701355D01*
X890188D01*
X891854Y699688D01*
Y696356D01*
X890188Y694690D01*
X886856D01*
X885190Y696356D01*
X895187Y704687D02*
Y698022D01*
X898519Y694690D01*
X901851Y698022D01*
Y704687D01*
X1482404Y634837D02*
X1475740D01*
Y629838D01*
X1479072Y631505D01*
X1480738D01*
X1482404Y629838D01*
Y626506D01*
X1480738Y624840D01*
X1477406D01*
X1475740Y626506D01*
X1485737Y634837D02*
Y628172D01*
X1489069Y624840D01*
X1492401Y628172D01*
Y634837D01*
X1474785Y607771D02*
X1473118Y609437D01*
X1469786D01*
X1468120Y607771D01*
Y601106D01*
X1469786Y599440D01*
X1473118D01*
X1474785Y601106D01*
Y604438D01*
X1471452D01*
X1478117Y599440D02*
Y609437D01*
X1484781Y599440D01*
Y609437D01*
X1488114D02*
Y599440D01*
X1493112D01*
X1494778Y601106D01*
Y607771D01*
X1493112Y609437D01*
X1488114D01*
X129854Y704687D02*
X123190D01*
Y699688D01*
X126522Y701355D01*
X128188D01*
X129854Y699688D01*
Y696356D01*
X128188Y694690D01*
X124856D01*
X123190Y696356D01*
X133187Y704687D02*
Y698022D01*
X136519Y694690D01*
X139851Y698022D01*
Y704687D01*
X123504Y633171D02*
X121838Y634837D01*
X118506D01*
X116840Y633171D01*
Y626506D01*
X118506Y624840D01*
X121838D01*
X123504Y626506D01*
Y629838D01*
X120172D01*
X126837Y624840D02*
Y634837D01*
X133501Y624840D01*
Y634837D01*
X136834D02*
Y624840D01*
X141832D01*
X143498Y626506D01*
Y633171D01*
X141832Y634837D01*
X136834D01*
X1437640Y558637D02*
Y548640D01*
X1442638D01*
X1444305Y550306D01*
Y551972D01*
X1442638Y553638D01*
X1437640D01*
X1442638D01*
X1444305Y555304D01*
Y556971D01*
X1442638Y558637D01*
X1437640D01*
X1447637D02*
Y550306D01*
X1449303Y548640D01*
X1452635D01*
X1454301Y550306D01*
Y558637D01*
X1457634D02*
X1464298D01*
X1460966D01*
Y548640D01*
X1467630Y558637D02*
X1474295D01*
X1470963D01*
Y548640D01*
X1482625Y558637D02*
X1479293D01*
X1477627Y556971D01*
Y550306D01*
X1479293Y548640D01*
X1482625D01*
X1484292Y550306D01*
Y556971D01*
X1482625Y558637D01*
X1487624Y548640D02*
Y558637D01*
X1494288Y548640D01*
Y558637D01*
X885505Y633171D02*
X883838Y634837D01*
X880506D01*
X878840Y633171D01*
Y626506D01*
X880506Y624840D01*
X883838D01*
X885505Y626506D01*
Y629838D01*
X882172D01*
X888837Y624840D02*
Y634837D01*
X895501Y624840D01*
Y634837D01*
X898834D02*
Y624840D01*
X903832D01*
X905498Y626506D01*
Y633171D01*
X903832Y634837D01*
X898834D01*
X383854Y704687D02*
X377190D01*
Y699688D01*
X380522Y701355D01*
X382188D01*
X383854Y699688D01*
Y696356D01*
X382188Y694690D01*
X378856D01*
X377190Y696356D01*
X387187Y704687D02*
Y698022D01*
X390519Y694690D01*
X393851Y698022D01*
Y704687D01*
X1139504Y633171D02*
X1137838Y634837D01*
X1134506D01*
X1132840Y633171D01*
Y626506D01*
X1134506Y624840D01*
X1137838D01*
X1139504Y626506D01*
Y629838D01*
X1136172D01*
X1142837Y624840D02*
Y634837D01*
X1149501Y624840D01*
Y634837D01*
X1152834D02*
Y624840D01*
X1157832D01*
X1159498Y626506D01*
Y633171D01*
X1157832Y634837D01*
X1152834D01*
X637854Y704687D02*
X631190D01*
Y699688D01*
X634522Y701355D01*
X636188D01*
X637854Y699688D01*
Y696356D01*
X636188Y694690D01*
X632856D01*
X631190Y696356D01*
X641187Y704687D02*
Y698022D01*
X644519Y694690D01*
X647851Y698022D01*
Y704687D01*
X1393504Y633171D02*
X1391838Y634837D01*
X1388506D01*
X1386840Y633171D01*
Y626506D01*
X1388506Y624840D01*
X1391838D01*
X1393504Y626506D01*
Y629838D01*
X1390172D01*
X1396837Y624840D02*
Y634837D01*
X1403501Y624840D01*
Y634837D01*
X1406834D02*
Y624840D01*
X1411832D01*
X1413498Y626506D01*
Y633171D01*
X1411832Y634837D01*
X1406834D01*
X1145854Y704687D02*
X1139190D01*
Y699688D01*
X1142522Y701355D01*
X1144188D01*
X1145854Y699688D01*
Y696356D01*
X1144188Y694690D01*
X1140856D01*
X1139190Y696356D01*
X1149187Y704687D02*
Y698022D01*
X1152519Y694690D01*
X1155851Y698022D01*
Y704687D01*
X631505Y633171D02*
X629838Y634837D01*
X626506D01*
X624840Y633171D01*
Y626506D01*
X626506Y624840D01*
X629838D01*
X631505Y626506D01*
Y629838D01*
X628172D01*
X634837Y624840D02*
Y634837D01*
X641501Y624840D01*
Y634837D01*
X644834D02*
Y624840D01*
X649832D01*
X651498Y626506D01*
Y633171D01*
X649832Y634837D01*
X644834D01*
X1399854Y704687D02*
X1393190D01*
Y699688D01*
X1396522Y701355D01*
X1398188D01*
X1399854Y699688D01*
Y696356D01*
X1398188Y694690D01*
X1394856D01*
X1393190Y696356D01*
X1403187Y704687D02*
Y698022D01*
X1406519Y694690D01*
X1409851Y698022D01*
Y704687D01*
D12*
X1512300Y647850D02*
G03*
X1512300Y647850I-1000J0D01*
G01*
X1498600Y641350D02*
X1524000D01*
X1498600Y539750D02*
X1524000D01*
Y641350D01*
X1498600Y539750D02*
Y641350D01*
D13*
X1400810Y362312D02*
G03*
X1400810Y362312I-3810J0D01*
G01*
X1146810D02*
G03*
X1146810Y362312I-3810J0D01*
G01*
X892810D02*
G03*
X892810Y362312I-3810J0D01*
G01*
X638810D02*
G03*
X638810Y362312I-3810J0D01*
G01*
X384810D02*
G03*
X384810Y362312I-3810J0D01*
G01*
X130810D02*
G03*
X130810Y362312I-3810J0D01*
G01*
D14*
X1405025Y380092D02*
X1429258D01*
X1364742D02*
X1388975D01*
X1364742D02*
Y444608D01*
X1405025D02*
X1429258D01*
Y380092D02*
Y444608D01*
X1364742D02*
X1388975D01*
X1151025Y380092D02*
X1175258D01*
X1110742D02*
X1134975D01*
X1110742D02*
Y444608D01*
X1151025D02*
X1175258D01*
Y380092D02*
Y444608D01*
X1110742D02*
X1134975D01*
X897025Y380092D02*
X921258D01*
X856742D02*
X880975D01*
X856742D02*
Y444608D01*
X897025D02*
X921258D01*
Y380092D02*
Y444608D01*
X856742D02*
X880975D01*
X643025Y380092D02*
X667258D01*
X602742D02*
X626975D01*
X602742D02*
Y444608D01*
X643025D02*
X667258D01*
Y380092D02*
Y444608D01*
X602742D02*
X626975D01*
X389025Y380092D02*
X413258D01*
X348742D02*
X372975D01*
X348742D02*
Y444608D01*
X389025D02*
X413258D01*
Y380092D02*
Y444608D01*
X348742D02*
X372975D01*
X135025Y380092D02*
X159258D01*
X94742D02*
X118975D01*
X94742D02*
Y444608D01*
X135025D02*
X159258D01*
Y380092D02*
Y444608D01*
X94742D02*
X118975D01*
M02*
