G04*
G04 #@! TF.GenerationSoftware,Altium Limited,Altium Designer,24.1.2 (44)*
G04*
G04 Layer_Physical_Order=1*
G04 Layer_Color=255*
%FSLAX44Y44*%
%MOMM*%
G71*
G04*
G04 #@! TF.SameCoordinates,D0725CFB-4392-4FD5-9E36-9DAD540CF34A*
G04*
G04*
G04 #@! TF.FilePolarity,Positive*
G04*
G01*
G75*
%ADD19C,1.4986*%
%ADD20C,1.2700*%
%ADD21C,1.3700*%
%ADD22R,1.3700X1.3700*%
%ADD23C,3.8100*%
%ADD24C,1.1430*%
D19*
X1397000Y437350D02*
D03*
Y387350D02*
D03*
X1143000Y437350D02*
D03*
Y387350D02*
D03*
X889000Y437350D02*
D03*
Y387350D02*
D03*
X635000Y437350D02*
D03*
Y387350D02*
D03*
X381000Y437350D02*
D03*
Y387350D02*
D03*
X127000Y437350D02*
D03*
Y387350D02*
D03*
D20*
X38100Y520700D02*
G03*
X63500Y495300I25400J0D01*
G01*
Y717550D02*
G03*
X38100Y692150I0J-25400D01*
G01*
X1485900Y387350D02*
G03*
X1511300Y412750I0J25400D01*
G01*
X1447800Y603250D02*
G03*
X1473200Y577850I25400J0D01*
G01*
X1511300Y692150D02*
G03*
X1485900Y717550I-25400J0D01*
G01*
X63500Y495300D02*
X127000D01*
X38100Y520700D02*
Y692150D01*
X63500Y717550D02*
X127000D01*
X1397000Y387350D02*
X1485900D01*
X1511300Y412750D02*
Y552450D01*
X1447800Y603250D02*
Y666750D01*
X1473200Y577850D02*
X1511300D01*
Y628650D02*
Y692150D01*
X1397000Y717550D02*
X1485900D01*
X1390650Y495300D02*
X1397000D01*
Y482600D02*
Y495300D01*
X127000Y717550D02*
X381000D01*
X1143000Y615950D02*
X1397000D01*
X1143000Y387350D02*
X1397000D01*
X889000D02*
X1143000D01*
X635000D02*
X889000D01*
X381000D02*
X635000D01*
X127000D02*
X381000D01*
X127000Y437350D02*
Y495300D01*
X215900D02*
X381000D01*
Y437350D02*
Y495300D01*
X469900D02*
X635000D01*
Y437350D02*
Y495300D01*
X723900D02*
X889000D01*
Y437350D02*
Y495300D01*
X977900D02*
X1143000D01*
Y437350D02*
Y495300D01*
X1231900D02*
X1390650D01*
X1397000Y437350D02*
Y482600D01*
X127000Y615950D02*
X381000D01*
X635000D01*
X889000D01*
X1143000D01*
Y717550D02*
X1397000D01*
X889000D02*
X1143000D01*
X635000D02*
X889000D01*
X381000D02*
X635000D01*
X177800Y666750D02*
X330200D01*
X431800D02*
X584200D01*
X685800D02*
X838200D01*
X939800D02*
X1092200D01*
X1193800D02*
X1346200D01*
D21*
X127000Y717550D02*
D03*
Y615950D02*
D03*
X76200Y666750D02*
D03*
X177800D02*
D03*
X381000Y717550D02*
D03*
Y615950D02*
D03*
X330200Y666750D02*
D03*
X431800D02*
D03*
X635000Y717550D02*
D03*
Y615950D02*
D03*
X584200Y666750D02*
D03*
X685800D02*
D03*
X889000Y717550D02*
D03*
Y615950D02*
D03*
X838200Y666750D02*
D03*
X939800D02*
D03*
X1143000Y717550D02*
D03*
Y615950D02*
D03*
X1092200Y666750D02*
D03*
X1193800D02*
D03*
X1397000Y717550D02*
D03*
Y615950D02*
D03*
X1346200Y666750D02*
D03*
X1447800D02*
D03*
X1511300Y603250D02*
D03*
Y577850D02*
D03*
Y552450D02*
D03*
D22*
Y628650D02*
D03*
D23*
X1460500Y63500D02*
D03*
Y825500D02*
D03*
X63500D02*
D03*
Y63500D02*
D03*
D24*
X1231900Y495300D02*
D03*
X1143000D02*
D03*
X723900D02*
D03*
X635000D02*
D03*
X977900D02*
D03*
X889000D02*
D03*
X469900D02*
D03*
X381000D02*
D03*
X215900D02*
D03*
X127000D02*
D03*
X1485900D02*
D03*
X1397000D02*
D03*
M02*
