M48
;Layer_Color=9474304
;FILE_FORMAT=4:4
METRIC,LZ
;TYPE=PLATED
T01F00S00C0.7620
T02F00S00C0.9906
T03F00S00C1.0200
;TYPE=NON_PLATED
T04F00S00C3.1242
%
T01
X012319Y004953
X01397
X014859
X01143
X009779
X00889
X007239
X00635
X004699
X00381
X002159
X00127
T02
X00127Y0038735
X00381
X00635
X00889
X01143
X01397
Y0043735
X01143
X00889
X00635
X00381
X00127
T03
X011938Y0066675
X013462
X01397Y0071755
Y0061595
X014478Y0066675
X015113Y0062865
Y0060325
Y0057785
Y0055245
X01143Y0061595
Y0071755
X010922Y0066675
X009398
X00889Y0071755
Y0061595
X008382Y0066675
X006858
X00635Y0071755
Y0061595
X005842Y0066675
X004318
X00381Y0071755
Y0061595
X003302Y0066675
X001778
X00127Y0071755
Y0061595
X000762Y0066675
T04
X000635Y000635
X014605
X000635Y008255
X014605
M30
